<?xml version="1.0" encoding="UTF-8"?>
<svg xmlns="http://www.w3.org/2000/svg" xmlns:xlink="http://www.w3.org/1999/xlink" width="960px" height="482px" viewBox="0 0 960 482" version="1.1">
<defs>
<linearGradient id="linear0" gradientUnits="userSpaceOnUse" x1="480" y1="180" x2="240" y2="180" gradientTransform="matrix(2,0,0,2.008333,0,-120.366546)">
<stop offset="0" style="stop-color:rgb(11.764706%,36.078431%,40.392157%);stop-opacity:1;"/>
<stop offset="1" style="stop-color:rgb(11.764706%,36.078431%,40.392157%);stop-opacity:0;"/>
</linearGradient>
<linearGradient id="linear1" gradientUnits="userSpaceOnUse" x1="0" y1="180" x2="240" y2="180" gradientTransform="matrix(2,0,0,2.008333,0,-120.366546)">
<stop offset="0" style="stop-color:rgb(11.764706%,36.078431%,40.392157%);stop-opacity:1;"/>
<stop offset="1" style="stop-color:rgb(11.764706%,36.078431%,40.392157%);stop-opacity:0;"/>
</linearGradient>
<linearGradient id="linear2" gradientUnits="userSpaceOnUse" x1="150.2814" y1="175.83831" x2="359.99998" y2="175.83831" >
<stop offset="0" style="stop-color:rgb(74.117647%,63.921569%,27.058824%);stop-opacity:1;"/>
<stop offset="1" style="stop-color:rgb(84.705882%,74.117647%,37.254902%);stop-opacity:1;"/>
</linearGradient>
<linearGradient id="linear3" gradientUnits="userSpaceOnUse" x1="155.01254" y1="95.39446" x2="155.01254" y2="274.92657" >
<stop offset="0" style="stop-color:rgb(74.117647%,63.921569%,27.058824%);stop-opacity:1;"/>
<stop offset="1" style="stop-color:rgb(84.705882%,74.117647%,37.254902%);stop-opacity:1;"/>
</linearGradient>
<radialGradient id="radial0" gradientUnits="userSpaceOnUse" cx="141.33552" cy="95.13115" fx="141.33552" fy="95.13115" r="20.43646" >
<stop offset="0" style="stop-color:rgb(84.705882%,74.117647%,37.254902%);stop-opacity:1;"/>
<stop offset="1" style="stop-color:rgb(74.117647%,63.921569%,27.058824%);stop-opacity:1;"/>
</radialGradient>
<linearGradient id="linear4" gradientUnits="userSpaceOnUse" x1="150.28139" y1="175.83831" x2="359.99998" y2="175.83831" >
<stop offset="0" style="stop-color:rgb(74.117647%,63.921569%,27.058824%);stop-opacity:1;"/>
<stop offset="1" style="stop-color:rgb(84.705882%,74.117647%,37.254902%);stop-opacity:1;"/>
</linearGradient>
<linearGradient id="linear5" gradientUnits="userSpaceOnUse" x1="155.01254" y1="95.39446" x2="155.01254" y2="274.92656" >
<stop offset="0" style="stop-color:rgb(74.117647%,63.921569%,27.058824%);stop-opacity:1;"/>
<stop offset="1" style="stop-color:rgb(84.705882%,74.117647%,37.254902%);stop-opacity:1;"/>
</linearGradient>
<radialGradient id="radial1" gradientUnits="userSpaceOnUse" cx="141.33552" cy="95.13114" fx="141.33552" fy="95.13114" r="20.43647" >
<stop offset="0" style="stop-color:rgb(84.705882%,74.117647%,37.254902%);stop-opacity:1;"/>
<stop offset="1" style="stop-color:rgb(74.117647%,63.921569%,27.058824%);stop-opacity:1;"/>
</radialGradient>
</defs>
<g id="surface1">
<rect x="0" y="0" width="960" height="482" style="fill:rgb(13.72549%,42.745098%,47.843137%);fill-opacity:1;stroke:none;"/>
<path style=" stroke:none;fill-rule:nonzero;fill:url(#linear0);" d="M 480 482.265625 L 480 0 L 960 0 L 960 482.265625 Z M 480 482.265625 "/>
<path style=" stroke:none;fill-rule:nonzero;fill:url(#linear1);" d="M 0 482.265625 L 0 0 L 480 0 L 480 482.265625 Z M 0 482.265625 "/>
<path style=" stroke:none;fill-rule:evenodd;fill:rgb(18.431373%,56.862745%,63.921569%);fill-opacity:1;" d="M 875.285156 148.941406 L 858.648438 146.496094 L 864.484375 119.613281 L 830.453125 132.113281 L 838.800781 171.96875 L 813.820312 183.671875 L 814.871094 234.945312 L 790.179688 251.015625 L 764.671875 227.191406 L 748.269531 226.578125 C 715.875 245.753906 717.859375 268.875 717.859375 268.875 L 705.542969 270.285156 C 687.492188 254.96875 676.070312 235.371094 672.972656 214.40625 L 645.417969 215.675781 L 611.507812 187.476562 L 601.816406 194.058594 L 617.695312 219.152344 L 631.996094 220.84375 L 643.667969 231.605469 L 595.980469 253.742188 L 559.964844 198.003906 L 564.519531 166.328125 L 544.847656 168.300781 L 523.832031 153.546875 L 513.851562 154.203125 L 522.316406 175.773438 L 486.125 185.175781 L 485.074219 157.117188 L 412.171875 175.917969 L 412.171875 139.964844 L 439.195312 138.648438 L 457.523438 101.613281 L 503.460938 102.132812 L 492.605469 88.550781 L 507.839844 74.449219 C 507.839844 74.449219 495.113281 66.132812 487.585938 75.53125 L 472.933594 73.511719 C 472.933594 38.355469 553.660156 27.640625 567.378906 68.386719 L 641.101562 57.765625 L 654.933594 33.515625 L 747.742188 21.8125 L 755.796875 43.101562 L 835.066406 48.742188 L 925.597656 72.945312 L 927 93.953125 Z M 418.703125 217.230469 L 450.867188 219.0625 L 487.992188 235.089844 L 512.738281 222.023438 L 541.28125 224.136719 L 572.335938 290.449219 L 620.609375 293.929688 C 620.609375 293.929688 619.96875 320.574219 576.890625 330.960938 L 568.191406 369.828125 L 543.269531 390.128906 C 546.070312 427.023438 490.734375 438.535156 490.734375 438.535156 L 460.613281 404.933594 L 458.863281 350.839844 L 434.757812 331.480469 L 395.824219 336.929688 L 365.761719 302.011719 L 367.921875 260.089844 L 405.164062 241.011719 Z M 302.324219 350.332031 L 294.09375 365.980469 L 268 371.386719 L 250.488281 400.476562 L 224.574219 418.570312 L 209.746094 462.183594 L 191.652344 460.539062 C 177.546875 422.761719 171.410156 383.351562 173.5 343.9375 L 139.46875 333.269531 L 117.8125 299.011719 L 151.492188 271.5625 L 153.125 262.824219 L 100.59375 231.148438 L 94.757812 176.722656 L 84.425781 172.589844 L 80.628906 195.195312 L 69.539062 193.078125 L 60.316406 146.175781 C 89.503906 67.597656 69.363281 44.523438 36.96875 51.808594 L 33 39.777344 L 100.417969 24.785156 C 100.417969 24.785156 121.429688 60.21875 187.566406 72.71875 C 143.671875 92.648438 170.054688 121.035156 189.023438 115.910156 L 193.695312 128.082031 L 202.683594 127.613281 L 210.039062 88.792969 L 259.535156 124.136719 L 236.714844 142.277344 L 252.941406 151.910156 L 221.421875 185.183594 C 203.09375 181.472656 191.476562 197.308594 200.816406 211.972656 L 192.992188 214.558594 C 172.679688 187.535156 136.199219 197.824219 136.199219 226.871094 L 147.054688 232.039062 L 167.371094 225.035156 L 170.347656 247.972656 L 212.605469 247.972656 L 265.140625 270.246094 L 265.898438 285.851562 L 323.394531 305.121094 L 322.695312 327.347656 Z M 218.851562 62.382812 L 198.015625 61.722656 L 183.480469 51.570312 L 202.332031 20.085938 L 242.726562 24.3125 C 236.890625 48.707031 266.074219 54.0625 266.074219 54.0625 L 273.136719 91.660156 L 263.214844 96.359375 Z M 787.855469 336.542969 L 805.367188 339.644531 L 805.835938 353.460938 L 827.722656 358.160156 L 840.625 334.285156 L 875.644531 382.878906 L 869.808594 426.210938 L 835.136719 432.414062 L 804.433594 407.507812 L 729.542969 418.316406 L 723.707031 371.929688 L 758.261719 361.074219 Z M 787.855469 336.542969 "/>
<path style="fill-rule:nonzero;fill:url(#linear2);stroke-width:15;stroke-linecap:butt;stroke-linejoin:miter;stroke:rgb(0%,0%,0%);stroke-opacity:1;stroke-miterlimit:10;" d="M 150.28125 99.079038 C 150.28125 99.079038 159.402344 95.791952 171.439453 92.617679 C 172.191406 92.419287 173.732422 92.022502 173.732422 92.022502 C 173.732422 92.022502 180.449219 100.965708 183.597656 100.298566 C 184.707031 100.063218 187.998047 95.760832 187.998047 95.760832 C 187.998047 95.760832 195.345703 102.712336 198.853516 102.286377 C 201.794922 101.928493 206.285156 86.796232 206.285156 86.796232 C 206.285156 86.796232 207.990234 86.774836 208.820312 86.788451 C 232.162109 87.181346 252.441406 100.197424 281.335938 101.282746 C 285.019531 101.420843 288.865234 101.374162 292.769531 101.18744 C 294.134766 101.121309 296.880859 100.942367 296.880859 100.942367 C 296.880859 100.942367 306.269531 110.893094 309.064453 110.591615 C 311.390625 110.338763 312.505859 99.248254 312.505859 99.248254 C 312.505859 99.248254 314.289062 99.014852 315.041016 98.902041 C 333.654297 96.145946 349.046875 92.055568 349.046875 92.055568 C 349.046875 92.055568 356.980469 119.085521 357.380859 148.400874 C 357.494141 156.682772 356.478516 165.225303 355.242188 173.281579 C 355.115234 174.110158 354.855469 175.751755 354.855469 175.751755 C 354.855469 175.751755 344.982422 178.859899 344.585938 181.217264 C 344.113281 184.039489 352.341797 191.121309 352.341797 191.121309 C 352.341797 191.121309 352.097656 192.790137 351.990234 193.597321 C 351.363281 198.24592 351.042969 202.305179 351.355469 205.506683 C 352.134766 213.489048 356.0625 225.659043 359.371094 234.835651 C 359.583984 235.424992 360 236.562829 360 236.562829 C 360 236.562829 355.322266 235.23827 353.234375 236.858472 C 351.146484 238.48062 350.378906 244.033654 350.378906 244.033654 C 350.378906 244.033654 342.888672 243.384017 341.857422 245.56633 C 340.816406 247.768094 345.970703 254.235288 345.970703 254.235288 C 345.970703 254.235288 342.96875 255.207798 341.40625 255.684328 C 332.447266 258.420972 322.298828 260.863918 313.822266 261.202352 C 304.011719 261.595246 290.205078 259.537414 274.361328 257.409561 C 273.40625 257.28119 271.148438 256.995272 271.148438 256.995272 C 271.148438 256.995272 267.986328 249.536117 266.402344 249.35134 C 265.105469 249.201574 260.117188 254.210002 260.117188 254.210002 C 260.117188 254.210002 253.453125 244.088114 251.601562 244.127015 C 249.759766 244.16397 247.445312 254.43757 247.445312 254.43757 C 247.445312 254.43757 246.042969 254.173047 244.539062 254.054401 C 236.013672 253.385313 227.277344 253.03132 218.558594 253.262777 C 194.357422 253.908524 183.333984 258.609639 178.574219 261.832539 C 175.996094 263.579167 174.746094 261.501885 174.128906 257.399836 C 171.289062 238.540915 150.28125 99.079038 150.28125 99.079038 Z M 150.28125 99.079038 " transform="matrix(2,0,0,2.008333,0,-120.366546)"/>
<path style="fill-rule:nonzero;fill:url(#linear3);stroke-width:15;stroke-linecap:butt;stroke-linejoin:miter;stroke:rgb(0%,0%,0%);stroke-opacity:1;stroke-miterlimit:10;" d="M 141.876953 206.448073 C 139.435547 190.23827 127.1875 159.78119 122.412109 135.981916 C 118.017578 114.080983 120.970703 98.087077 120.970703 98.087077 L 163.189453 95.395168 C 163.189453 95.395168 159.169922 107.25396 163.472656 125.432124 C 167.988281 144.501107 182.136719 166.419546 184.439453 181.703519 C 188.402344 208.01576 190.025391 261.385184 190.025391 261.385184 C 190.025391 261.385184 188.330078 271.510962 170.939453 274.342912 C 152.664062 277.320739 146.554688 267.934069 146.554688 267.934069 C 146.554688 267.934069 145.337891 229.426548 141.876953 206.448073 Z M 141.876953 206.448073 " transform="matrix(2,0,0,2.008333,0,-120.366546)"/>
<path style="fill-rule:nonzero;fill:url(#radial0);stroke-width:15;stroke-linecap:butt;stroke-linejoin:miter;stroke:rgb(0%,0%,0%);stroke-opacity:1;stroke-miterlimit:10;" d="M 161.587891 90.643483 C 162.408203 96.087596 156.060547 101.967393 144.056641 103.776263 C 132.052734 105.585132 121.65625 102.63648 120.835938 97.190422 C 120.015625 91.746309 129.082031 87.679271 141.085938 85.870402 C 153.089844 84.061532 160.767578 85.197424 161.587891 90.643483 Z M 161.587891 90.643483 " transform="matrix(2,0,0,2.008333,0,-120.366546)"/>
<path style="fill-rule:nonzero;fill:url(#linear4);stroke-width:5;stroke-linecap:butt;stroke-linejoin:miter;stroke:rgb(41.960784%,36.470588%,16.862745%);stroke-opacity:1;stroke-miterlimit:10;" d="M 175.257812 264.892056 L 150.28125 99.079038 C 150.28125 99.079038 159.402344 95.791952 171.439453 92.617679 C 172.191406 92.419287 173.732422 92.022502 173.732422 92.022502 C 173.732422 92.022502 180.449219 100.965708 183.597656 100.298566 C 184.707031 100.063218 187.998047 95.760832 187.998047 95.760832 C 187.998047 95.760832 195.345703 102.712336 198.853516 102.286377 C 201.794922 101.928493 206.285156 86.796232 206.285156 86.796232 C 206.285156 86.796232 207.990234 86.774836 208.820312 86.788451 C 232.162109 87.181346 252.441406 100.197424 281.335938 101.282746 C 285.019531 101.420843 288.865234 101.374162 292.769531 101.18744 C 294.134766 101.121309 296.880859 100.942367 296.880859 100.942367 C 296.880859 100.942367 306.269531 110.893094 309.064453 110.591615 C 311.390625 110.338763 312.505859 99.248254 312.505859 99.248254 C 312.505859 99.248254 314.289062 99.014852 315.041016 98.902041 C 333.654297 96.145946 349.046875 92.055568 349.046875 92.055568 C 349.046875 92.055568 356.980469 119.085521 357.380859 148.400874 C 357.494141 156.682772 356.478516 165.225303 355.242188 173.281579 C 355.115234 174.110158 354.855469 175.751755 354.855469 175.751755 C 354.855469 175.751755 344.982422 178.859899 344.585938 181.217264 C 344.113281 184.039489 352.341797 191.121309 352.341797 191.121309 C 352.341797 191.121309 352.097656 192.790137 351.990234 193.597321 C 351.363281 198.24592 351.042969 202.305179 351.355469 205.506683 C 352.134766 213.489048 356.0625 225.659043 359.371094 234.835651 C 359.583984 235.424992 360 236.562829 360 236.562829 C 360 236.562829 355.322266 235.23827 353.234375 236.858472 C 351.146484 238.48062 350.378906 244.033654 350.378906 244.033654 C 350.378906 244.033654 342.888672 243.384017 341.857422 245.56633 C 340.816406 247.768094 345.970703 254.235288 345.970703 254.235288 C 345.970703 254.235288 342.96875 255.207798 341.40625 255.684328 C 332.447266 258.420972 322.298828 260.863918 313.822266 261.202352 C 304.011719 261.595246 290.205078 259.537414 274.361328 257.409561 C 273.40625 257.28119 271.148438 256.995272 271.148438 256.995272 C 271.148438 256.995272 267.986328 249.536117 266.402344 249.35134 C 265.105469 249.201574 260.117188 254.210002 260.117188 254.210002 C 260.117188 254.210002 253.453125 244.088114 251.601562 244.127015 C 249.759766 244.16397 247.445312 254.43757 247.445312 254.43757 C 247.445312 254.43757 246.042969 254.173047 244.539062 254.054401 C 236.013672 253.385313 227.277344 253.03132 218.558594 253.262777 C 181.248047 254.256683 175.257812 264.892056 175.257812 264.892056 Z M 175.257812 264.892056 " transform="matrix(2,0,0,2.008333,0,-120.366546)"/>
<path style="fill-rule:nonzero;fill:url(#linear5);stroke-width:5;stroke-linecap:butt;stroke-linejoin:miter;stroke:rgb(41.960784%,36.470588%,16.862745%);stroke-opacity:1;stroke-miterlimit:10;" d="M 141.876953 206.448073 C 139.435547 190.23827 127.1875 159.78119 122.412109 135.981916 C 118.017578 114.080983 120.970703 98.087077 120.970703 98.087077 L 163.189453 95.395168 C 163.189453 95.395168 159.169922 107.25396 163.472656 125.432124 C 167.988281 144.501107 182.136719 166.419546 184.439453 181.703519 C 188.402344 208.01576 190.025391 261.385184 190.025391 261.385184 C 190.025391 261.385184 188.330078 271.510962 170.939453 274.342912 C 152.664062 277.320739 146.554688 267.934069 146.554688 267.934069 C 146.554688 267.934069 145.337891 229.426548 141.876953 206.446128 Z M 141.876953 206.448073 " transform="matrix(2,0,0,2.008333,0,-120.366546)"/>
<path style="fill-rule:nonzero;fill:url(#radial1);stroke-width:5;stroke-linecap:butt;stroke-linejoin:miter;stroke:rgb(41.960784%,36.470588%,16.862745%);stroke-opacity:1;stroke-miterlimit:10;" d="M 161.587891 90.643483 C 162.408203 96.087596 156.060547 101.967393 144.056641 103.776263 C 132.052734 105.585132 121.65625 102.63648 120.835938 97.190422 C 120.015625 91.746309 129.082031 87.679271 141.085938 85.870402 C 153.089844 84.061532 160.767578 85.197424 161.587891 90.643483 Z M 161.587891 90.643483 " transform="matrix(2,0,0,2.008333,0,-120.366546)"/>
<path style="fill:none;stroke-width:3.5;stroke-linecap:round;stroke-linejoin:miter;stroke:rgb(41.960784%,36.470588%,16.862745%);stroke-opacity:1;stroke-miterlimit:10;" d="M 129.099609 96.943405 C 129.099609 96.943405 137.84375 91.981657 142.015625 91.279504 C 146.185547 90.577352 150.949219 89.523151 151.986328 93.092264 C 153.021484 96.659432 146.363281 97.596932 144.054688 98.302974 C 141.746094 99.010962 137.9375 97.396595 137.9375 97.396595 " transform="matrix(2,0,0,2.008333,0,-120.366546)"/>
<path style="fill-rule:nonzero;fill:rgb(21.176471%,18.431373%,8.235294%);fill-opacity:1;stroke-width:1.5;stroke-linecap:butt;stroke-linejoin:miter;stroke:rgb(21.176471%,18.431373%,8.235294%);stroke-opacity:1;stroke-miterlimit:10;" d="M 189.570312 131.60951 L 178.839844 124.889463 L 182.068359 120.643483 L 192.789062 127.334354 L 199.779297 119.116641 L 205.183594 122.551548 L 198.398438 130.870402 L 209.279297 137.656579 L 205.882812 141.809198 L 195.076172 135.085262 L 188.474609 143.460521 L 182.90625 140.07424 Z M 189.570312 131.60951 " transform="matrix(2,0,0,2.008333,0,-120.366546)"/>
<path style="fill-rule:nonzero;fill:rgb(21.176471%,18.431373%,8.235294%);fill-opacity:1;stroke-width:1.5;stroke-linecap:butt;stroke-linejoin:miter;stroke:rgb(21.176471%,18.431373%,8.235294%);stroke-opacity:1;stroke-miterlimit:10;" d="M 206.5 166.602378 C 206.5 166.602378 201.398438 163.05855 199.472656 160.574759 C 197.505859 158.036506 194.820312 151.534302 194.820312 151.534302 L 200.349609 147.249421 C 200.349609 147.249421 202.628906 152.185884 204.380859 154.447943 C 206.464844 157.135962 212.029297 162.317497 212.029297 162.317497 Z M 206.5 166.602378 " transform="matrix(2,0,0,2.008333,0,-120.366546)"/>
<path style="fill-rule:nonzero;fill:rgb(21.176471%,18.431373%,8.235294%);fill-opacity:1;stroke-width:1.5;stroke-linecap:butt;stroke-linejoin:miter;stroke:rgb(21.176471%,18.431373%,8.235294%);stroke-opacity:1;stroke-miterlimit:10;" d="M 234.373047 177.869883 C 234.373047 177.869883 227.179688 177.494494 223.988281 176.506423 C 221.150391 175.625329 216.164062 172.221543 216.164062 172.221543 L 218.238281 165.540396 C 218.238281 165.540396 223.978516 168.315941 227.003906 169.255386 C 230.046875 170.198721 236.445312 171.188737 236.445312 171.188737 Z M 234.373047 177.869883 " transform="matrix(2,0,0,2.008333,0,-120.366546)"/>
<path style="fill-rule:nonzero;fill:rgb(21.176471%,18.431373%,8.235294%);fill-opacity:1;stroke-width:1.5;stroke-linecap:butt;stroke-linejoin:miter;stroke:rgb(21.176471%,18.431373%,8.235294%);stroke-opacity:1;stroke-miterlimit:10;" d="M 261.738281 173.39439 C 261.738281 173.39439 256.708984 176.090189 253.607422 176.774836 C 250.501953 177.459484 243.121094 177.502274 243.121094 177.502274 L 241.613281 170.669416 C 241.613281 170.669416 249.037109 170.362103 252.248047 169.654115 C 255.224609 168.996698 260.230469 166.561532 260.230469 166.561532 Z M 261.738281 173.39439 " transform="matrix(2,0,0,2.008333,0,-120.366546)"/>
<path style="fill-rule:nonzero;fill:rgb(21.176471%,18.431373%,8.235294%);fill-opacity:1;stroke-width:1.5;stroke-linecap:butt;stroke-linejoin:miter;stroke:rgb(21.176471%,18.431373%,8.235294%);stroke-opacity:1;stroke-miterlimit:10;" d="M 283.683594 152.960002 C 283.683594 152.960002 278.972656 156.780023 276.824219 159.117938 C 274.673828 161.459743 270.787109 166.999162 270.787109 166.999162 L 265.634766 162.266927 C 265.634766 162.266927 268.730469 156.883109 270.896484 154.525744 C 273.029297 152.205334 278.53125 148.227767 278.53125 148.227767 Z M 283.683594 152.960002 " transform="matrix(2,0,0,2.008333,0,-120.366546)"/>
<path style="fill-rule:nonzero;fill:rgb(21.176471%,18.431373%,8.235294%);fill-opacity:1;stroke-width:1.5;stroke-linecap:butt;stroke-linejoin:miter;stroke:rgb(21.176471%,18.431373%,8.235294%);stroke-opacity:1;stroke-miterlimit:10;" d="M 306.925781 151.507072 C 306.925781 151.507072 300.849609 150.011351 297.716797 149.618457 C 294.544922 149.221672 288.009766 149.136091 288.009766 149.136091 L 288.880859 142.194312 C 288.880859 142.194312 295.330078 142.443275 298.484375 142.838114 C 301.636719 143.232954 307.796875 144.565293 307.796875 144.565293 Z M 306.925781 151.507072 " transform="matrix(2,0,0,2.008333,0,-120.366546)"/>
<path style="fill-rule:nonzero;fill:rgb(21.176471%,18.431373%,8.235294%);fill-opacity:1;stroke-width:1.5;stroke-linecap:butt;stroke-linejoin:miter;stroke:rgb(21.176471%,18.431373%,8.235294%);stroke-opacity:1;stroke-miterlimit:10;" d="M 326.84375 168.072813 C 326.84375 168.072813 322.628906 162.889333 320.150391 160.646724 C 317.951172 158.656968 312.705078 155.284302 312.705078 155.284302 L 317.396484 150.096932 C 317.396484 150.096932 323.681641 153.924733 326.140625 156.147891 C 328.373047 158.166823 331.535156 162.883498 331.535156 162.883498 Z M 326.84375 168.072813 " transform="matrix(2,0,0,2.008333,0,-120.366546)"/>
<path style="fill-rule:nonzero;fill:rgb(21.176471%,18.431373%,8.235294%);fill-opacity:1;stroke-width:1.5;stroke-linecap:butt;stroke-linejoin:miter;stroke:rgb(21.176471%,18.431373%,8.235294%);stroke-opacity:1;stroke-miterlimit:10;" d="M 313.705078 207.16773 C 313.705078 207.16773 318.884766 204.864826 321.892578 204.156838 C 325.0625 203.40995 332.261719 202.795324 332.261719 202.795324 L 333.865234 209.604841 C 333.865234 209.604841 326.933594 210.511221 323.736328 211.265889 C 320.765625 211.966097 315.310547 213.977248 315.310547 213.977248 Z M 313.705078 207.16773 " transform="matrix(2,0,0,2.008333,0,-120.366546)"/>
<path style="fill-rule:nonzero;fill:rgb(21.176471%,18.431373%,8.235294%);fill-opacity:1;stroke-width:1.5;stroke-linecap:butt;stroke-linejoin:miter;stroke:rgb(21.176471%,18.431373%,8.235294%);stroke-opacity:1;stroke-miterlimit:10;" d="M 288.132812 219.923177 C 288.132812 219.923177 293.951172 217.86729 296.658203 216.5155 C 299.615234 215.041174 305.191406 211.411766 305.191406 211.411766 L 308.314453 217.672788 C 308.314453 217.672788 303.712891 220.664229 301.025391 222.006294 C 298.056641 223.4884 291.255859 226.182253 291.255859 226.182253 Z M 288.132812 219.923177 " transform="matrix(2,0,0,2.008333,0,-120.366546)"/>
<path style="fill-rule:nonzero;fill:rgb(21.176471%,18.431373%,8.235294%);fill-opacity:1;stroke-width:1.5;stroke-linecap:butt;stroke-linejoin:miter;stroke:rgb(21.176471%,18.431373%,8.235294%);stroke-opacity:1;stroke-miterlimit:10;" d="M 262.425781 218.35549 C 262.425781 218.35549 268.111328 220.193534 271.144531 220.685625 C 274.371094 221.21078 281.242188 221.415007 281.242188 221.415007 L 280.121094 228.321776 C 280.121094 228.321776 273.201172 228.240085 269.935547 227.709095 C 266.955078 227.224784 261.302734 225.262259 261.302734 225.262259 Z M 262.425781 218.35549 " transform="matrix(2,0,0,2.008333,0,-120.366546)"/>
<path style="fill-rule:nonzero;fill:rgb(21.176471%,18.431373%,8.235294%);fill-opacity:1;stroke-width:1;stroke-linecap:butt;stroke-linejoin:miter;stroke:rgb(21.176471%,18.431373%,8.235294%);stroke-opacity:1;stroke-miterlimit:10;" d="M 220.847656 222.733732 L 220.101562 210.830205 L 237.564453 200.659691 L 249.105469 206.276911 L 246.310547 230.667471 Z M 220.847656 222.733732 " transform="matrix(2,0,0,2.008333,0,-120.366546)"/>
</g>
</svg>
